<?xml version="1.0" encoding="utf-8"?>
<!-- Generator: Adobe Illustrator 21.1.0, SVG Export Plug-In . SVG Version: 6.00 Build 0)  -->
<svg version="1.1" id="Layer_1" xmlns="http://www.w3.org/2000/svg" xmlns:xlink="http://www.w3.org/1999/xlink" x="0px" y="0px"
	 viewBox="0 0 172.8 48.5" style="enable-background:new 0 0 172.8 48.5;" xml:space="preserve">
<style type="text/css">
	.st0{fill:#FFFFFF;}
	.st1{fill:#3E8BCA;}
</style>
<g>
	<g>
		<polygon class="st0" points="62.2,8.4 66.1,8.4 62.5,21.3 58.5,21.3 		"/>
		<polygon class="st0" points="80.7,26.8 84.6,26.8 81,39.8 76.9,39.8 		"/>
		<polygon class="st0" points="65.1,21.3 68.6,8.5 72.3,8.5 77.3,15.4 79.2,8.6 82.7,8.6 79.5,21.3 75.6,21.3 70.8,14.2 68.9,21.3 
					"/>
		<polygon class="st0" points="117,21.3 120.5,8.4 124.2,8.4 129.3,15.4 131.2,8.5 134.7,8.5 131.5,21.3 127.6,21.3 122.8,14.2 
			120.9,21.3 		"/>
		<polygon class="st0" points="86.9,21.3 89.5,11.7 84.1,11.7 85.1,8.5 99.5,8.5 98.7,11.7 93.4,11.7 90.8,21.3 		"/>
		<path class="st0" d="M113.6,21.3h-12.4c0,0-2.3,0.2-1.6-3.2l1.8-6.9c0,0,0.9-2.6,3.4-2.6c2.5,0,12.2,0,12.2,0l-0.8,3.2H105
			l-0.5,1.7h8.3l-0.5,2.6h-8.6l-0.5,2.2h11.2L113.6,21.3z"/>
		<path class="st0" d="M152.6,8.5l-0.8,3.1h-10.8l-0.5,2h9.6c0,0,1.8-0.3,1.2,2.4c-0.6,2.7-0.9,3.3-0.9,3.3s-1,1.8-2.4,1.9
			c-1.4,0.1-13.3,0-13.3,0l0.9-3.1h11.2l0.4-2h-9.6c0,0-1.7-0.1-1.1-2.8c0.6-2.7,1-3.6,1-3.6s0.5-1.3,2.3-1.3
			C142.3,8.6,152.6,8.5,152.6,8.5z"/>
		<polygon class="st0" points="158.9,21.3 160.4,15.7 155.3,8.5 160.4,8.5 163.3,12.2 167.8,8.5 172.8,8.5 164,15.9 162.7,21.3 		
			"/>
		<path class="st0" d="M75.6,26.8H62l-3.5,13c0,0,12.7,0.1,14.2,0c1.6-0.1,2-1.3,2-1.3s0.7-2,1-3.5c0.4-1.6-1.2-1.8-1.2-1.8
			C76,33,76.3,32,76.3,32l0.9-2.7C77.7,26.9,75.6,26.8,75.6,26.8z M71.1,36.7h-7.6l0.5-1.9h7.5L71.1,36.7z M72.4,31.8h-7.6l0.5-1.9
			h7.5L72.4,31.8z"/>
		<polygon class="st0" points="84.1,39.8 87.5,26.8 91.3,26.8 90.1,31.6 93.5,31.6 97.7,26.8 101.9,26.8 97.4,32.5 100.1,39.8 
			95.9,39.8 94.2,34.6 89.3,34.6 88,39.8 		"/>
		<path class="st0" d="M116.4,39.8h-12.7c0,0-2.3,0.2-1.7-3.3l1.8-7c0,0,1-2.7,3.5-2.7s12.5,0,12.5,0l-0.8,3.2h-11.4l-0.5,1.7h8.5
			l-0.5,2.7h-8.8l-0.6,2.2h11.4L116.4,39.8z"/>
		<path class="st0" d="M137.9,26.8l-0.8,3.2h-11l-0.5,2h9.8c0,0,1.9-0.3,1.2,2.5c-0.6,2.8-1,3.4-1,3.4s-1,1.9-2.4,1.9
			c-1.5,0.1-13.6,0-13.6,0l0.8-3.2h11.6l0.5-2h-9.8c0,0-1.7-0.1-1.1-2.8c0.6-2.7,1-3.7,1-3.7s0.5-1.3,2.4-1.3
			C127.4,26.9,137.9,26.8,137.9,26.8z"/>
	</g>
	<g>
		<circle class="st1" cx="24.3" cy="24.1" r="23.2"/>
		<path class="st0" d="M12,21.7c-4,1.6-6,6.1-4.4,10.1c1.6,4,6.1,6,10.1,4.4c4-1.6,6-6.1,4.4-10.1C20.6,22.1,16,20.1,12,21.7z
			 M17.4,35.3c-3.5,1.4-7.4-0.3-8.8-3.8C7.3,28,9,24.1,12.4,22.7c3.5-1.4,7.4,0.3,8.8,3.8C22.6,30,20.9,33.9,17.4,35.3z"/>
		<path class="st0" d="M27.5,10.1c-1.5,0.6-2.2,2.3-1.6,3.8c0.6,1.5,2.3,2.2,3.8,1.6c1.5-0.6,2.2-2.3,1.6-3.8
			C30.7,10.2,29,9.5,27.5,10.1z M29.4,14.8c-1.1,0.4-2.4-0.1-2.8-1.2c-0.4-1.1,0.1-2.4,1.2-2.8c1.1-0.4,2.4,0.1,2.8,1.2
			C31,13.1,30.5,14.4,29.4,14.8z"/>
		<path class="st1" d="M32.3,27.3c-0.9,0.4-1.4,1.4-1,2.4c0.4,0.9,1.4,1.4,2.4,1c0.9-0.4,1.4-1.4,1-2.4
			C34.3,27.4,33.2,26.9,32.3,27.3z M33.5,30.2c-0.7,0.3-1.5-0.1-1.8-0.8c-0.3-0.7,0.1-1.5,0.8-1.8c0.7-0.3,1.5,0.1,1.8,0.8
			C34.5,29.2,34.2,30,33.5,30.2z"/>
		<path class="st0" d="M30.1,21.7c-4,1.6-6,6.1-4.4,10.1c1.6,4,6.1,6,10.1,4.4c4-1.6,6-6.1,4.4-10.1C38.6,22.1,34.1,20.1,30.1,21.7z
			 M35.4,35.3c-3.5,1.4-7.4-0.3-8.8-3.8c-1.4-3.5,0.3-7.4,3.8-8.8c3.5-1.4,7.4,0.3,8.8,3.8C40.6,30,38.9,33.9,35.4,35.3z"/>
		<path class="st1" d="M31.3,19.9c-1.3-3.2-4.3-5.2-7.7-5.2c-1,0-2.1,0.2-3.1,0.6c-4.3,1.7-6.3,6.5-4.7,10.8
			c1.3,3.2,4.3,5.2,7.7,5.2l0,0c1,0,2.1-0.2,3.1-0.6C30.9,29,33,24.1,31.3,19.9z M29.3,25.4c-0.7,1.5-1.9,2.7-3.4,3.3
			c-0.7,0.3-1.5,0.4-2.3,0.4c-2.6,0-4.9-1.6-5.8-4c-1.3-3.2,0.3-6.9,3.5-8.1c0.7-0.3,1.5-0.4,2.3-0.4c2.6,0,4.9,1.6,5.8,4
			C30,22.2,30,23.9,29.3,25.4z"/>
		<path class="st0" d="M20.7,15.7c-4,1.6-6,6.1-4.4,10.1c1.6,4,6.1,6,10.1,4.4c4-1.6,6-6.1,4.4-10.1C29.3,16.1,24.7,14.1,20.7,15.7z
			 M26.1,29.2c-3.5,1.4-7.4-0.3-8.8-3.8c-1.4-3.5,0.3-7.4,3.8-8.8c3.5-1.4,7.4,0.3,8.8,3.8C31.2,23.9,29.5,27.8,26.1,29.2z"/>
		<path class="st1" d="M14.2,27.3c-0.9,0.4-1.4,1.4-1,2.4c0.4,0.9,1.4,1.4,2.4,1c0.9-0.4,1.4-1.4,1-2.4
			C16.2,27.4,15.1,26.9,14.2,27.3z M15.4,30.2c-0.7,0.3-1.5-0.1-1.8-0.8c-0.3-0.7,0.1-1.5,0.8-1.8c0.7-0.3,1.5,0.1,1.8,0.8
			C16.4,29.2,16.1,30,15.4,30.2z"/>
	</g>
</g>
</svg>
